<?xml version="1.0" encoding="UTF-8" standalone="no"?>
<svg width="34px" height="42px" viewBox="0 0 34 42" version="1.1" xmlns="http://www.w3.org/2000/svg" xmlns:xlink="http://www.w3.org/1999/xlink" xmlns:sketch="http://www.bohemiancoding.com/sketch/ns">
    <title>replay@2x</title>
    <defs></defs>
    <g id="replay_48dp" stroke="none" stroke-width="1" fill="none" fill-rule="evenodd" sketch:type="MSPage">
        <g id="replay_large" sketch:type="MSArtboardGroup" transform="translate(-7.000000, 0.000000)">
            <g id="replay@2x" sketch:type="MSLayerGroup">
                <path d="M20.8397435,9.62300615 L26.5046533,15.287916 C27.2856533,16.068916 27.2856533,17.334916 26.5046533,18.115916 C25.7236533,18.896916 24.4576533,18.896916 23.6756533,18.115916 L16.6746533,11.113916 C16.4971146,10.9366046 16.3599344,10.7341274 16.2631127,10.5179139 C15.9368015,9.8197101 16.046611,8.96768555 16.5925414,8.37300853 C16.6188791,8.34336608 16.6462497,8.31431965 16.6746533,8.28591602 C16.6934525,8.26711684 16.7125327,8.24877016 16.7318804,8.230876 L23.77125,1.17075 C24.53025,0.40975 25.76125,0.40975 26.52025,1.17075 C27.27925,1.93175 27.27925,3.16475 26.52025,3.92575 L20.8397435,9.62300615 Z" id="shape" fill="#FFFFFF" sketch:type="MSShapeGroup"></path>
                <path d="M8.07137408,18.8812965 C7.41800915,20.7009323 7.08,22.6287078 7.08,24.6 C7.08,33.944658 14.655342,41.52 24,41.52 C33.344658,41.52 40.92,33.944658 40.92,24.6 C40.92,15.255342 33.344658,7.68 24,7.68 C22.2167432,7.68 20.4684835,7.95657968 18.8026961,8.49375051 C17.793485,8.81919343 17.2391815,9.90114423 17.5646244,10.9103553 C17.8900673,11.9195663 18.9720181,12.4738699 19.9812291,12.1484269 C21.2673662,11.733683 22.6180558,11.52 24,11.52 C31.2238845,11.52 37.08,17.3761155 37.08,24.6 C37.08,31.8238845 31.2238845,37.68 24,37.68 C16.7761155,37.68 10.92,31.8238845 10.92,24.6 C10.92,23.0726345 11.181053,21.5837649 11.6854591,20.1789828 C12.0438052,19.1809808 11.5252617,18.0814433 10.5272597,17.7230971 C9.5292577,17.364751 8.42972025,17.8832945 8.07137408,18.8812965 L8.07137408,18.8812965 Z" id="Shape" fill="#FFFFFF" sketch:type="MSShapeGroup"></path>
                <rect id="frame" sketch:type="MSShapeGroup" x="0" y="0" width="48" height="48"></rect>
            </g>
        </g>
    </g>
</svg>
